Coordinates
version=1
nRows=29
nColumns=18
inDegrees=yes

Units are S.I. units (second, meters, Newtons, ...)
Angles are in degrees.

endheader
time	ground_thorax_rot_x	ground_thorax_rot_y	ground_thorax_rot_z	ground_thorax_tx	ground_thorax_ty	ground_thorax_tz	clav_prot	clav_elev	scapula_abduction	scapula_elevation	scapula_upward_rot	scapula_winging	plane_elv	shoulder_elv	axial_rot	elbow_flexion	pro_sup
      6.21000000	      0.78493403	     -1.36698591	     -8.24071307	     -0.00423131	      0.00403036	     -0.00078352	    -32.09466631	     -1.93183474	    -27.69906591	     -3.53873801	     15.54865977	      2.92781018	    -11.94067819	     18.70564787	      6.00968947	      0.00000000	     34.32000000
      6.22000000	      0.75894035	     -1.36494632	     -8.27617567	     -0.00423131	      0.00403036	     -0.00078352	    -32.17878248	     -1.98243508	    -27.86793807	     -3.56299126	     15.46897954	      2.94221473	    -12.17556325	     18.35526624	      6.40402754	      0.00000000	     34.32000000
      6.23000000	      0.73752898	     -1.41125195	     -8.37037245	     -0.00423131	      0.00403036	     -0.00078352	    -32.24319457	     -2.05786024	    -27.97562190	     -3.61367088	     15.42523218	      2.96034642	    -12.31673892	     18.08451751	      6.74450401	      0.00000000	     34.32000000
      6.24000000	      0.69325276	     -1.53871700	     -8.36204379	     -0.00423131	      0.00403036	     -0.00078352	    -32.21016570	     -2.03609192	    -27.93582824	     -3.59183789	     15.41364480	      2.96513831	    -12.33724370	     17.77183807	      7.08302660	      0.00000000	     34.32000000
      6.25000000	      0.75706485	     -1.54088885	     -8.37639004	     -0.00423131	      0.00403036	     -0.00078352	    -32.19338794	     -2.01021835	    -27.94809497	     -3.55745150	     15.36080670	      2.97498704	    -12.34003640	     17.69991413	      7.09863860	      0.00000000	     34.32000000
      6.26000000	      0.72256144	     -1.38210838	     -8.26669964	     -0.00423131	      0.00403036	     -0.00078352	    -32.23850493	     -1.94161083	    -28.11501838	     -3.47811106	     15.23950006	      2.97250992	    -12.79972474	     17.50525704	      7.70760397	      0.00000000	     34.32000000
      6.27000000	      0.68680058	     -1.26343806	     -8.25914706	     -0.00423131	      0.00403036	     -0.00078352	    -32.27262552	     -2.03447725	    -28.23627592	     -3.51039905	     15.08188761	      3.03357576	    -13.31399998	     17.39218772	      8.33299144	      0.00000000	     34.32000000
      6.28000000	      0.74170052	     -1.15725209	     -8.28908632	     -0.00423131	      0.00403036	     -0.00078352	    -32.37342132	     -2.11563505	    -28.42511952	     -3.55761737	     14.99696769	      3.05370013	    -13.37074489	     17.20320944	      8.85118670	      0.00000000	     34.32000000
      6.29000000	      0.81940190	     -1.18242438	     -8.31449328	     -0.00423131	      0.00403036	     -0.00078352	    -32.35609434	     -2.09910491	    -28.43767802	     -3.52843984	     14.93742101	      3.06874141	    -13.38214923	     17.09953656	      8.86617670	      0.00000000	     34.32000000
      6.30000000	      0.68640706	     -1.18333181	     -8.26370190	     -0.00423131	      0.00403036	     -0.00078352	    -32.36400315	     -2.03937375	    -28.44878155	     -3.49255814	     14.97088625	      3.03899011	    -14.12420798	     16.64100278	      9.51970123	      0.00000000	     34.32000000
      6.31000000	      0.65356162	     -1.16729140	     -8.26779919	     -0.00423131	      0.00403036	     -0.00078352	    -32.36580373	     -2.05987668	    -28.48062682	     -3.49297309	     14.91181028	      3.06023870	    -14.35256678	     16.39568859	     10.35678203	      0.00000000	     34.32000000
      6.32000000	      0.58760234	     -1.17915054	     -8.34247522	     -0.00423131	      0.00403036	     -0.00078352	    -32.37245587	     -2.16002198	    -28.51846431	     -3.54429981	     14.81514682	      3.11506922	    -14.37374434	     16.27805922	     10.44249935	      0.00000000	     34.32000000
      6.33000000	      0.63882475	     -1.16234740	     -8.36013512	     -0.00423131	      0.00403036	     -0.00078352	    -32.36744765	     -2.12843536	    -28.53708016	     -3.51252415	     14.78624289	      3.11395275	    -14.37862667	     16.26668692	     10.46691980	      0.00000000	     34.32000000
      6.34000000	      0.65740310	     -1.04322200	     -8.28755134	     -0.00423131	      0.00403036	     -0.00078352	    -32.43007498	     -2.11947749	    -28.63934969	     -3.51137307	     14.78915294	      3.09312999	    -15.09839759	     16.12922271	     11.22601916	      0.00000000	     34.32000000
      6.35000000	      0.75768670	     -1.07790397	     -8.27840113	     -0.00423131	      0.00403036	     -0.00078352	    -32.42455160	     -2.13014827	    -28.64920484	     -3.50937687	     14.75205076	      3.10780254	    -15.10407227	     16.08378459	     11.24114413	      0.00000000	     34.32000000
      6.36000000	      0.65214333	     -1.04559391	     -8.29982465	     -0.00423131	      0.00403036	     -0.00078352	    -32.42234644	     -2.26105768	    -28.62673810	     -3.59924295	     14.71699844	      3.15876930	    -16.10135364	     15.75957893	     12.42694563	      0.00000000	     34.32000000
      6.37000000	      0.72601425	     -1.02885671	     -8.29330996	     -0.00423131	      0.00403036	     -0.00078352	    -32.41250137	     -2.25785680	    -28.63414270	     -3.58617476	     14.67931259	      3.17071299	    -16.10660138	     15.70250123	     12.44438472	      0.00000000	     34.32000000
      6.38000000	      0.50047454	     -0.87667500	     -8.15907349	     -0.00423131	      0.00403036	     -0.00078352	    -32.42778002	     -2.30604740	    -28.69717358	     -3.60090940	     14.59034395	      3.20478291	    -17.71443045	     15.38327701	     14.21555289	      0.00000000	     34.32000000
      6.39000000	      0.56881808	     -0.87877136	     -8.16611795	     -0.00423131	      0.00403036	     -0.00078352	    -32.43096218	     -2.30950705	    -28.70805055	     -3.60062377	     14.57863056	      3.20820993	    -17.70925432	     15.33713804	     14.23209693	      0.00000000	     34.32000000
      6.40000000	      0.60591584	     -0.82852293	     -8.23289249	     -0.00423131	      0.00403036	     -0.00078352	    -32.47251626	     -2.30902235	    -28.69508423	     -3.63832615	     14.71380637	      3.16184768	    -18.37632467	     15.06017474	     15.11749346	      0.00000000	     34.32000000
      6.41000000	      0.60614544	     -0.81689015	     -8.31088182	     -0.00423131	      0.00403036	     -0.00078352	    -32.44186363	     -2.28540415	    -28.65989252	     -3.61506364	     14.70187977	      3.16583553	    -18.37176167	     14.99188496	     15.15260888	      0.00000000	     34.32000000
      6.42000000	      0.72285822	     -0.94251924	     -8.16335939	     -0.00423131	      0.00403036	     -0.00078352	    -32.25080499	     -2.13854093	    -28.25836060	     -3.54883850	     14.93230097	      3.11105864	    -19.35610395	     14.73852925	     17.34901995	      0.00000000	     34.32000000
      6.43000000	      0.72624428	     -0.85545934	     -8.26085561	     -0.00423131	      0.00403036	     -0.00078352	    -32.27661902	     -2.15961153	    -28.30910555	     -3.56002710	     14.90628014	      3.11723671	    -19.47512517	     14.69897881	     16.19092128	      0.00000000	     34.32000000
      6.44000000	      0.64189490	     -0.94285243	     -8.19816427	     -0.00423131	      0.00403036	     -0.00078352	    -32.09731459	     -2.25034971	    -28.12849265	     -3.55539998	     14.67509030	      3.25301915	    -19.74013754	     14.91130695	     15.89713573	      0.00000000	     34.32000000
      6.45000000	      0.67297361	     -0.95855741	     -8.25349252	     -0.00423131	      0.00403036	     -0.00078352	    -32.09224052	     -2.23099599	    -28.13856155	     -3.53494828	     14.65430514	      3.25393735	    -19.74442362	     14.87942706	     15.91759366	      0.00000000	     34.32000000
      6.46000000	      0.63465733	     -0.88257136	     -8.27149748	     -0.00423131	      0.00403036	     -0.00078352	    -32.20348212	     -2.22797761	    -28.31312739	     -3.54406104	     14.66558015	      3.22079887	    -20.26906491	     14.64548613	     16.92180421	      0.00000000	     34.32000000
      6.47000000	      0.69576484	     -0.90660468	     -8.24696000	     -0.00423131	      0.00403036	     -0.00078352	    -32.27305318	     -2.17156444	    -28.41161432	     -3.52036115	     14.71823250	      3.17051407	    -20.45397298	     14.28386823	     18.80363385	      0.00000000	     34.32000000
      6.48000000	      0.59559939	     -0.87122183	     -8.27606589	     -0.00423131	      0.00403036	     -0.00078352	    -32.32216504	     -2.30324976	    -28.60143262	     -3.55807466	     14.46465167	      3.26483479	    -20.50019612	     14.27602272	     19.01368474	      0.00000000	     34.32000000
      6.49000000	      0.53418021	     -0.87826263	     -8.30770836	     -0.00423131	      0.00403036	     -0.00078352	    -32.37136653	     -2.35587422	    -28.73290868	     -3.57188845	     14.34986382	      3.29798711	    -20.70349264	     14.09698416	     19.38889297	      0.00000000	     34.32000000
